<mxfile host="app.diagrams.net" modified="2023-05-10T04:49:19.714Z" agent="Mozilla/5.0 (Macintosh; Intel Mac OS X 10.15; rv:109.0) Gecko/20100101 Firefox/112.0" etag="YaTNQ6eyqKtHiHQMWd-l" version="21.2.9" type="github">
  <diagram name="Page-1" id="pTc8qVfQxKfmeEwoTJtu">
    <mxGraphModel dx="1434" dy="769" grid="1" gridSize="10" guides="1" tooltips="1" connect="1" arrows="1" fold="1" page="1" pageScale="1" pageWidth="1169" pageHeight="827" math="0" shadow="0">
      <root>
        <mxCell id="0" />
        <mxCell id="1" parent="0" />
        <mxCell id="wT2hEgxZ2jl30o9yvn4_-18" value="Registrarse" style="ellipse;whiteSpace=wrap;html=1;" parent="1" vertex="1">
          <mxGeometry x="500" y="137.5" width="140" height="40" as="geometry" />
        </mxCell>
        <mxCell id="wT2hEgxZ2jl30o9yvn4_-19" value="Identificarse" style="ellipse;whiteSpace=wrap;html=1;" parent="1" vertex="1">
          <mxGeometry x="790" y="177.5" width="140" height="40" as="geometry" />
        </mxCell>
        <mxCell id="wT2hEgxZ2jl30o9yvn4_-20" value="Usuario y contrase침a" style="ellipse;whiteSpace=wrap;html=1;" parent="1" vertex="1">
          <mxGeometry x="920" y="267.5" width="140" height="40" as="geometry" />
        </mxCell>
        <mxCell id="wT2hEgxZ2jl30o9yvn4_-21" value="Certificado digital" style="ellipse;whiteSpace=wrap;html=1;" parent="1" vertex="1">
          <mxGeometry x="920" y="97.5" width="140" height="40" as="geometry" />
        </mxCell>
        <mxCell id="wT2hEgxZ2jl30o9yvn4_-22" value="" style="endArrow=block;endFill=0;endSize=12;html=1;rounded=0;entryX=1;entryY=0.5;entryDx=0;entryDy=0;exitX=0.5;exitY=0;exitDx=0;exitDy=0;" parent="1" source="wT2hEgxZ2jl30o9yvn4_-20" target="wT2hEgxZ2jl30o9yvn4_-19" edge="1">
          <mxGeometry width="160" relative="1" as="geometry">
            <mxPoint x="625" y="407.5" as="sourcePoint" />
            <mxPoint x="785" y="407.5" as="targetPoint" />
          </mxGeometry>
        </mxCell>
        <mxCell id="wT2hEgxZ2jl30o9yvn4_-23" value="" style="endArrow=block;endFill=0;endSize=12;html=1;rounded=0;entryX=1;entryY=0.5;entryDx=0;entryDy=0;exitX=0.5;exitY=1;exitDx=0;exitDy=0;" parent="1" source="wT2hEgxZ2jl30o9yvn4_-21" target="wT2hEgxZ2jl30o9yvn4_-19" edge="1">
          <mxGeometry width="160" relative="1" as="geometry">
            <mxPoint x="905.2775000000001" y="127.5" as="sourcePoint" />
            <mxPoint x="815" y="237.5" as="targetPoint" />
          </mxGeometry>
        </mxCell>
        <mxCell id="wT2hEgxZ2jl30o9yvn4_-25" value="App Pago m칩vil" style="shape=umlFrame;whiteSpace=wrap;html=1;pointerEvents=0;width=90;height=30;" parent="1" vertex="1">
          <mxGeometry x="410" y="30" width="710" height="640" as="geometry" />
        </mxCell>
        <mxCell id="wT2hEgxZ2jl30o9yvn4_-39" value="&amp;lt;&amp;lt;includes&amp;gt;&amp;gt;" style="endArrow=open;endSize=16;endFill=0;html=1;rounded=0;exitX=1;exitY=0.5;exitDx=0;exitDy=0;entryX=0;entryY=0.5;entryDx=0;entryDy=0;dashed=1;" parent="1" source="bYC8mK1eiYxS44wLoXLP-1" target="wT2hEgxZ2jl30o9yvn4_-19" edge="1">
          <mxGeometry width="160" relative="1" as="geometry">
            <mxPoint x="674.02" y="210.53999999999996" as="sourcePoint" />
            <mxPoint x="886.06" y="178.5" as="targetPoint" />
            <Array as="points" />
          </mxGeometry>
        </mxCell>
        <mxCell id="wT2hEgxZ2jl30o9yvn4_-52" value="" style="endArrow=none;endFill=0;endSize=12;html=1;rounded=0;entryX=0;entryY=0.5;entryDx=0;entryDy=0;" parent="1" target="wT2hEgxZ2jl30o9yvn4_-18" edge="1">
          <mxGeometry width="160" relative="1" as="geometry">
            <mxPoint x="400" y="280" as="sourcePoint" />
            <mxPoint x="805" y="197.5" as="targetPoint" />
          </mxGeometry>
        </mxCell>
        <mxCell id="wT2hEgxZ2jl30o9yvn4_-53" value="" style="endArrow=none;endFill=0;endSize=12;html=1;rounded=0;exitX=1;exitY=0.25;exitDx=0;exitDy=0;entryX=0;entryY=0.5;entryDx=0;entryDy=0;" parent="1" source="wT2hEgxZ2jl30o9yvn4_-56" target="bYC8mK1eiYxS44wLoXLP-5" edge="1">
          <mxGeometry width="160" relative="1" as="geometry">
            <mxPoint x="450" y="80" as="sourcePoint" />
            <mxPoint x="470" y="207.5" as="targetPoint" />
          </mxGeometry>
        </mxCell>
        <mxCell id="wT2hEgxZ2jl30o9yvn4_-54" value="" style="endArrow=none;endFill=0;endSize=12;html=1;rounded=0;entryX=0;entryY=0.5;entryDx=0;entryDy=0;exitX=1;exitY=0.25;exitDx=0;exitDy=0;" parent="1" source="wT2hEgxZ2jl30o9yvn4_-56" target="bYC8mK1eiYxS44wLoXLP-1" edge="1">
          <mxGeometry width="160" relative="1" as="geometry">
            <mxPoint x="450" y="72.5" as="sourcePoint" />
            <mxPoint x="540" y="107.5" as="targetPoint" />
          </mxGeometry>
        </mxCell>
        <mxCell id="wT2hEgxZ2jl30o9yvn4_-55" value="Actor" style="shape=umlActor;verticalLabelPosition=bottom;verticalAlign=top;html=1;movable=1;resizable=1;rotatable=1;deletable=1;editable=1;locked=0;connectable=1;noLabel=1;" parent="1" vertex="1">
          <mxGeometry x="355" y="201.5" width="30" height="60" as="geometry" />
        </mxCell>
        <mxCell id="wT2hEgxZ2jl30o9yvn4_-56" value="Usuario" style="text;strokeColor=none;align=center;fillColor=none;html=1;verticalAlign=middle;whiteSpace=wrap;rounded=0;" parent="1" vertex="1">
          <mxGeometry x="340" y="271.5" width="60" height="30" as="geometry" />
        </mxCell>
        <mxCell id="wT2hEgxZ2jl30o9yvn4_-63" value="&amp;lt;&amp;lt;includes&amp;gt;&amp;gt;" style="endArrow=open;endSize=16;endFill=0;html=1;rounded=0;dashed=1;" parent="1" edge="1">
          <mxGeometry width="160" relative="1" as="geometry">
            <mxPoint x="45" y="27.5" as="sourcePoint" />
            <mxPoint x="165" y="27.5" as="targetPoint" />
            <Array as="points" />
          </mxGeometry>
        </mxCell>
        <mxCell id="wT2hEgxZ2jl30o9yvn4_-64" value="&amp;lt;&amp;lt;extends&amp;gt;&amp;gt;" style="endArrow=open;endSize=16;endFill=0;html=1;rounded=0;dashed=1;" parent="1" edge="1">
          <mxGeometry width="160" relative="1" as="geometry">
            <mxPoint x="45" y="57.5" as="sourcePoint" />
            <mxPoint x="165" y="57.5" as="targetPoint" />
          </mxGeometry>
        </mxCell>
        <mxCell id="wT2hEgxZ2jl30o9yvn4_-65" value="" style="endArrow=block;endFill=0;endSize=12;html=1;rounded=0;" parent="1" edge="1">
          <mxGeometry width="160" relative="1" as="geometry">
            <mxPoint x="45" y="87.5" as="sourcePoint" />
            <mxPoint x="165" y="87.5" as="targetPoint" />
          </mxGeometry>
        </mxCell>
        <mxCell id="wT2hEgxZ2jl30o9yvn4_-66" value="" style="endArrow=none;endFill=0;endSize=12;html=1;rounded=0;" parent="1" edge="1">
          <mxGeometry width="160" relative="1" as="geometry">
            <mxPoint x="45" y="117" as="sourcePoint" />
            <mxPoint x="165" y="117.5" as="targetPoint" />
          </mxGeometry>
        </mxCell>
        <mxCell id="wT2hEgxZ2jl30o9yvn4_-67" value="Generalizaci칩n" style="text;strokeColor=none;align=center;fillColor=none;html=1;verticalAlign=middle;whiteSpace=wrap;rounded=0;" parent="1" vertex="1">
          <mxGeometry x="185" y="67.5" width="60" height="30" as="geometry" />
        </mxCell>
        <mxCell id="wT2hEgxZ2jl30o9yvn4_-68" value="Asociaci칩n" style="text;strokeColor=none;align=center;fillColor=none;html=1;verticalAlign=middle;whiteSpace=wrap;rounded=0;" parent="1" vertex="1">
          <mxGeometry x="185" y="102.5" width="60" height="30" as="geometry" />
        </mxCell>
        <mxCell id="wT2hEgxZ2jl30o9yvn4_-69" value="&amp;lt;&amp;lt;extends&amp;gt;&amp;gt;" style="endArrow=open;endSize=16;endFill=0;html=1;rounded=0;dashed=1;entryX=0.5;entryY=1;entryDx=0;entryDy=0;exitX=0.5;exitY=0;exitDx=0;exitDy=0;" parent="1" source="wT2hEgxZ2jl30o9yvn4_-70" target="wT2hEgxZ2jl30o9yvn4_-27" edge="1">
          <mxGeometry x="0.0001" width="160" relative="1" as="geometry">
            <mxPoint x="775" y="471.5" as="sourcePoint" />
            <mxPoint x="875" y="491.5" as="targetPoint" />
            <Array as="points" />
            <mxPoint as="offset" />
          </mxGeometry>
        </mxCell>
        <mxCell id="wT2hEgxZ2jl30o9yvn4_-70" value="Imprimir PDF" style="ellipse;whiteSpace=wrap;html=1;" parent="1" vertex="1">
          <mxGeometry x="500" y="407.5" width="140" height="40" as="geometry" />
        </mxCell>
        <mxCell id="bYC8mK1eiYxS44wLoXLP-1" value="Pagar" style="ellipse;whiteSpace=wrap;html=1;" vertex="1" parent="1">
          <mxGeometry x="500" y="211.5" width="140" height="40" as="geometry" />
        </mxCell>
        <mxCell id="bYC8mK1eiYxS44wLoXLP-4" value="" style="group" vertex="1" connectable="0" parent="1">
          <mxGeometry x="500" y="267.5" width="140" height="80" as="geometry" />
        </mxCell>
        <mxCell id="wT2hEgxZ2jl30o9yvn4_-27" value="Transferir dinero" style="ellipse;whiteSpace=wrap;html=1;verticalAlign=top;" parent="bYC8mK1eiYxS44wLoXLP-4" vertex="1">
          <mxGeometry y="10" width="140" height="70" as="geometry" />
        </mxCell>
        <mxCell id="wT2hEgxZ2jl30o9yvn4_-29" value="&lt;div&gt;&lt;b&gt;extension point&lt;/b&gt;&lt;/div&gt;&lt;div&gt;Imprimir resguardo&lt;br&gt;&lt;/div&gt;" style="text;strokeColor=none;align=center;fillColor=none;html=1;verticalAlign=middle;whiteSpace=wrap;rounded=0;" parent="bYC8mK1eiYxS44wLoXLP-4" vertex="1">
          <mxGeometry x="16" y="39" width="110" height="30" as="geometry" />
        </mxCell>
        <mxCell id="wT2hEgxZ2jl30o9yvn4_-37" value="" style="edgeStyle=none;orthogonalLoop=1;jettySize=auto;html=1;rounded=0;endArrow=none;endFill=0;" parent="bYC8mK1eiYxS44wLoXLP-4" edge="1">
          <mxGeometry width="80" relative="1" as="geometry">
            <mxPoint x="5" y="36" as="sourcePoint" />
            <mxPoint x="135" y="36" as="targetPoint" />
            <Array as="points" />
          </mxGeometry>
        </mxCell>
        <mxCell id="bYC8mK1eiYxS44wLoXLP-5" value="Chatear" style="ellipse;whiteSpace=wrap;html=1;" vertex="1" parent="1">
          <mxGeometry x="500" y="487.5" width="140" height="40" as="geometry" />
        </mxCell>
        <mxCell id="bYC8mK1eiYxS44wLoXLP-6" value="" style="endArrow=none;endFill=0;endSize=12;html=1;rounded=0;exitX=1;exitY=0.25;exitDx=0;exitDy=0;entryX=0;entryY=0.5;entryDx=0;entryDy=0;" edge="1" parent="1" source="wT2hEgxZ2jl30o9yvn4_-56" target="wT2hEgxZ2jl30o9yvn4_-27">
          <mxGeometry width="160" relative="1" as="geometry">
            <mxPoint x="410" y="289.5" as="sourcePoint" />
            <mxPoint x="520" y="207.5" as="targetPoint" />
          </mxGeometry>
        </mxCell>
        <mxCell id="bYC8mK1eiYxS44wLoXLP-7" value="&amp;lt;&amp;lt;includes&amp;gt;&amp;gt;" style="endArrow=open;endSize=16;endFill=0;html=1;rounded=0;exitX=1;exitY=0.5;exitDx=0;exitDy=0;dashed=1;entryX=0.5;entryY=1;entryDx=0;entryDy=0;" edge="1" parent="1" source="bYC8mK1eiYxS44wLoXLP-5" target="wT2hEgxZ2jl30o9yvn4_-19">
          <mxGeometry width="160" relative="1" as="geometry">
            <mxPoint x="674.02" y="486.4" as="sourcePoint" />
            <mxPoint x="850" y="267.5" as="targetPoint" />
            <Array as="points" />
          </mxGeometry>
        </mxCell>
        <mxCell id="bYC8mK1eiYxS44wLoXLP-8" value="&amp;lt;&amp;lt;includes&amp;gt;&amp;gt;" style="endArrow=open;endSize=16;endFill=0;html=1;rounded=0;exitX=1;exitY=0.5;exitDx=0;exitDy=0;entryX=0;entryY=1;entryDx=0;entryDy=0;dashed=1;" edge="1" parent="1" source="wT2hEgxZ2jl30o9yvn4_-27" target="wT2hEgxZ2jl30o9yvn4_-19">
          <mxGeometry width="160" relative="1" as="geometry">
            <mxPoint x="660" y="207.5" as="sourcePoint" />
            <mxPoint x="911" y="81.5" as="targetPoint" />
            <Array as="points" />
          </mxGeometry>
        </mxCell>
        <mxCell id="bYC8mK1eiYxS44wLoXLP-9" value="" style="endArrow=block;endFill=0;endSize=12;html=1;rounded=0;entryX=0.5;entryY=1;entryDx=0;entryDy=0;exitX=0.5;exitY=0;exitDx=0;exitDy=0;" edge="1" parent="1" source="bYC8mK1eiYxS44wLoXLP-11" target="bYC8mK1eiYxS44wLoXLP-5">
          <mxGeometry width="160" relative="1" as="geometry">
            <mxPoint x="660" y="577.5" as="sourcePoint" />
            <mxPoint x="830" y="527.5" as="targetPoint" />
          </mxGeometry>
        </mxCell>
        <mxCell id="bYC8mK1eiYxS44wLoXLP-10" value="Usuario" style="ellipse;whiteSpace=wrap;html=1;" vertex="1" parent="1">
          <mxGeometry x="585" y="587.5" width="140" height="40" as="geometry" />
        </mxCell>
        <mxCell id="bYC8mK1eiYxS44wLoXLP-11" value="Entidad bancaria" style="ellipse;whiteSpace=wrap;html=1;" vertex="1" parent="1">
          <mxGeometry x="440" y="587.5" width="140" height="40" as="geometry" />
        </mxCell>
        <mxCell id="bYC8mK1eiYxS44wLoXLP-12" value="" style="endArrow=block;endFill=0;endSize=12;html=1;rounded=0;entryX=0.5;entryY=1;entryDx=0;entryDy=0;exitX=0.5;exitY=0;exitDx=0;exitDy=0;" edge="1" parent="1" source="bYC8mK1eiYxS44wLoXLP-10" target="bYC8mK1eiYxS44wLoXLP-5">
          <mxGeometry width="160" relative="1" as="geometry">
            <mxPoint x="530" y="597.5" as="sourcePoint" />
            <mxPoint x="580" y="537.5" as="targetPoint" />
          </mxGeometry>
        </mxCell>
      </root>
    </mxGraphModel>
  </diagram>
</mxfile>
